<svg xmlns="http://www.w3.org/2000/svg" xmlns:xlink="http://www.w3.org/1999/xlink" width="250" zoomAndPan="magnify" viewBox="0 0 375 374.999991" height="250" preserveAspectRatio="xMidYMid meet" version="1.0"><defs><g/><clipPath id="78c24bc4c1"><path d="M 26.617188 114 L 124.117188 114 L 124.117188 261 L 26.617188 261 Z M 26.617188 114 " clip-rule="nonzero"/></clipPath><clipPath id="a420714269"><path d="M 71.722656 115.3125 C 62.914062 117.929688 60.933594 124.710938 53.777344 124.710938 C 48.398438 124.710938 49.984375 123.316406 47.0625 127 C 46.019531 128.3125 45.347656 128.78125 40.683594 131.445312 C 30.960938 137 30.90625 144.820312 31.011719 155.5 L 31.074219 161.972656 C 29.0625 166.21875 28.9375 165.984375 29.898438 167.878906 C 32.375 172.757812 32.738281 181.296875 27.972656 186.214844 L 26.671875 187.566406 L 27.972656 188.917969 C 32.839844 193.941406 32.265625 202.589844 29.898438 207.253906 C 29.070312 208.890625 29.089844 208.980469 30.179688 211.273438 L 31.074219 213.160156 C 30.925781 228.28125 29.675781 237.40625 40.683594 243.695312 C 45.347656 246.359375 46.019531 246.828125 47.0625 248.136719 C 49.988281 251.824219 48.398438 250.425781 53.777344 250.425781 C 61 250.425781 63.070312 257.417969 71.96875 259.890625 C 81.351562 262.496094 87.730469 253.804688 92.714844 251.324219 C 94.421875 250.460938 94.621094 250.433594 96.941406 250.433594 C 102.316406 250.433594 100.734375 251.824219 103.65625 248.144531 C 104.695312 246.832031 105.371094 246.363281 110.035156 243.699219 C 121.078125 237.386719 119.78125 228.164062 119.640625 213.164062 C 121.691406 208.898438 121.777344 209.152344 120.816406 207.257812 C 118.34375 202.378906 117.976562 193.839844 122.742188 188.921875 L 124.042969 187.570312 L 122.742188 186.21875 C 117.976562 181.300781 118.355469 172.742188 120.835938 167.882812 C 121.78125 166.03125 121.683594 166.285156 119.640625 161.976562 C 119.785156 146.835938 121.03125 137.726562 110.039062 131.445312 C 105.367188 128.789062 104.691406 128.3125 103.652344 127 C 100.722656 123.316406 102.3125 124.710938 96.9375 124.710938 C 94.617188 124.710938 94.417969 124.667969 92.710938 123.820312 C 87.746094 121.347656 81.1875 112.5 71.722656 115.3125 Z M 71.722656 115.3125 " clip-rule="nonzero"/></clipPath><linearGradient x1="-61.540123" gradientTransform="matrix(0.216567, 0, 0, 0.215734, 26.660359, 114.765197)" y1="51.101611" x2="510.910137" gradientUnits="userSpaceOnUse" y2="623.538414" id="928fb64984"><stop stop-opacity="1" stop-color="rgb(75.698853%, 58.799744%, 25.898743%)" offset="0"/><stop stop-opacity="1" stop-color="rgb(75.698853%, 58.799744%, 25.898743%)" offset="0.125"/><stop stop-opacity="1" stop-color="rgb(75.984192%, 59.222412%, 26.428223%)" offset="0.128906"/><stop stop-opacity="1" stop-color="rgb(76.269531%, 59.646606%, 26.957703%)" offset="0.132812"/><stop stop-opacity="1" stop-color="rgb(76.802063%, 60.437012%, 27.944946%)" offset="0.136719"/><stop stop-opacity="1" stop-color="rgb(77.334595%, 61.227417%, 28.933716%)" offset="0.140625"/><stop stop-opacity="1" stop-color="rgb(77.865601%, 62.017822%, 29.920959%)" offset="0.144531"/><stop stop-opacity="1" stop-color="rgb(78.398132%, 62.808228%, 30.908203%)" offset="0.148438"/><stop stop-opacity="1" stop-color="rgb(78.929138%, 63.598633%, 31.895447%)" offset="0.152344"/><stop stop-opacity="1" stop-color="rgb(79.46167%, 64.389038%, 32.884216%)" offset="0.15625"/><stop stop-opacity="1" stop-color="rgb(79.994202%, 65.179443%, 33.87146%)" offset="0.160156"/><stop stop-opacity="1" stop-color="rgb(80.526733%, 65.971375%, 34.858704%)" offset="0.164062"/><stop stop-opacity="1" stop-color="rgb(81.057739%, 66.76178%, 35.845947%)" offset="0.167969"/><stop stop-opacity="1" stop-color="rgb(81.590271%, 67.552185%, 36.833191%)" offset="0.171875"/><stop stop-opacity="1" stop-color="rgb(82.122803%, 68.34259%, 37.820435%)" offset="0.175781"/><stop stop-opacity="1" stop-color="rgb(82.655334%, 69.132996%, 38.809204%)" offset="0.179687"/><stop stop-opacity="1" stop-color="rgb(83.18634%, 69.923401%, 39.796448%)" offset="0.183594"/><stop stop-opacity="1" stop-color="rgb(83.718872%, 70.713806%, 40.783691%)" offset="0.1875"/><stop stop-opacity="1" stop-color="rgb(84.249878%, 71.504211%, 41.770935%)" offset="0.191406"/><stop stop-opacity="1" stop-color="rgb(84.78241%, 72.294617%, 42.758179%)" offset="0.195312"/><stop stop-opacity="1" stop-color="rgb(85.314941%, 73.085022%, 43.745422%)" offset="0.199219"/><stop stop-opacity="1" stop-color="rgb(85.847473%, 73.875427%, 44.734192%)" offset="0.203125"/><stop stop-opacity="1" stop-color="rgb(86.378479%, 74.665833%, 45.721436%)" offset="0.207031"/><stop stop-opacity="1" stop-color="rgb(86.911011%, 75.456238%, 46.708679%)" offset="0.210938"/><stop stop-opacity="1" stop-color="rgb(87.443542%, 76.246643%, 47.695923%)" offset="0.214844"/><stop stop-opacity="1" stop-color="rgb(87.976074%, 77.037048%, 48.683167%)" offset="0.21875"/><stop stop-opacity="1" stop-color="rgb(88.50708%, 77.827454%, 49.67041%)" offset="0.222656"/><stop stop-opacity="1" stop-color="rgb(89.039612%, 78.617859%, 50.65918%)" offset="0.226562"/><stop stop-opacity="1" stop-color="rgb(89.570618%, 79.408264%, 51.646423%)" offset="0.230469"/><stop stop-opacity="1" stop-color="rgb(90.103149%, 80.198669%, 52.633667%)" offset="0.234375"/><stop stop-opacity="1" stop-color="rgb(90.635681%, 80.989075%, 53.620911%)" offset="0.238281"/><stop stop-opacity="1" stop-color="rgb(91.168213%, 81.77948%, 54.608154%)" offset="0.242187"/><stop stop-opacity="1" stop-color="rgb(91.699219%, 82.569885%, 55.595398%)" offset="0.246094"/><stop stop-opacity="1" stop-color="rgb(92.23175%, 83.360291%, 56.584167%)" offset="0.25"/><stop stop-opacity="1" stop-color="rgb(92.764282%, 84.150696%, 57.571411%)" offset="0.253906"/><stop stop-opacity="1" stop-color="rgb(93.296814%, 84.941101%, 58.558655%)" offset="0.257812"/><stop stop-opacity="1" stop-color="rgb(93.82782%, 85.731506%, 59.545898%)" offset="0.261719"/><stop stop-opacity="1" stop-color="rgb(94.360352%, 86.521912%, 60.533142%)" offset="0.265625"/><stop stop-opacity="1" stop-color="rgb(94.891357%, 87.312317%, 61.520386%)" offset="0.269531"/><stop stop-opacity="1" stop-color="rgb(95.423889%, 88.102722%, 62.509155%)" offset="0.273437"/><stop stop-opacity="1" stop-color="rgb(95.956421%, 88.893127%, 63.496399%)" offset="0.277344"/><stop stop-opacity="1" stop-color="rgb(96.488953%, 89.683533%, 64.483643%)" offset="0.28125"/><stop stop-opacity="1" stop-color="rgb(97.019958%, 90.473938%, 65.470886%)" offset="0.285156"/><stop stop-opacity="1" stop-color="rgb(97.55249%, 91.264343%, 66.459656%)" offset="0.289062"/><stop stop-opacity="1" stop-color="rgb(98.085022%, 92.054749%, 67.446899%)" offset="0.292969"/><stop stop-opacity="1" stop-color="rgb(98.617554%, 92.845154%, 68.434143%)" offset="0.296875"/><stop stop-opacity="1" stop-color="rgb(99.14856%, 93.635559%, 69.421387%)" offset="0.300781"/><stop stop-opacity="1" stop-color="rgb(99.681091%, 94.42749%, 70.40863%)" offset="0.304688"/><stop stop-opacity="1" stop-color="rgb(99.702454%, 94.276428%, 69.891357%)" offset="0.308594"/><stop stop-opacity="1" stop-color="rgb(99.725342%, 94.126892%, 69.374084%)" offset="0.3125"/><stop stop-opacity="1" stop-color="rgb(99.530029%, 93.57605%, 68.215942%)" offset="0.316406"/><stop stop-opacity="1" stop-color="rgb(99.334717%, 93.026733%, 67.0578%)" offset="0.320312"/><stop stop-opacity="1" stop-color="rgb(99.139404%, 92.475891%, 65.898132%)" offset="0.324219"/><stop stop-opacity="1" stop-color="rgb(98.944092%, 91.925049%, 64.73999%)" offset="0.328125"/><stop stop-opacity="1" stop-color="rgb(98.748779%, 91.374207%, 63.580322%)" offset="0.332031"/><stop stop-opacity="1" stop-color="rgb(98.554993%, 90.823364%, 62.42218%)" offset="0.335938"/><stop stop-opacity="1" stop-color="rgb(98.35968%, 90.272522%, 61.264038%)" offset="0.339844"/><stop stop-opacity="1" stop-color="rgb(98.164368%, 89.723206%, 60.105896%)" offset="0.34375"/><stop stop-opacity="1" stop-color="rgb(97.969055%, 89.172363%, 58.946228%)" offset="0.347656"/><stop stop-opacity="1" stop-color="rgb(97.773743%, 88.621521%, 57.788086%)" offset="0.351562"/><stop stop-opacity="1" stop-color="rgb(97.57843%, 88.070679%, 56.629944%)" offset="0.355469"/><stop stop-opacity="1" stop-color="rgb(97.383118%, 87.521362%, 55.471802%)" offset="0.359375"/><stop stop-opacity="1" stop-color="rgb(97.187805%, 86.97052%, 54.312134%)" offset="0.363281"/><stop stop-opacity="1" stop-color="rgb(96.992493%, 86.419678%, 53.153992%)" offset="0.367188"/><stop stop-opacity="1" stop-color="rgb(96.79718%, 85.868835%, 51.994324%)" offset="0.371094"/><stop stop-opacity="1" stop-color="rgb(96.601868%, 85.317993%, 50.836182%)" offset="0.375"/><stop stop-opacity="1" stop-color="rgb(96.406555%, 84.767151%, 49.67804%)" offset="0.378906"/><stop stop-opacity="1" stop-color="rgb(96.212769%, 84.217834%, 48.519897%)" offset="0.382812"/><stop stop-opacity="1" stop-color="rgb(96.017456%, 83.666992%, 47.360229%)" offset="0.386719"/><stop stop-opacity="1" stop-color="rgb(95.822144%, 83.11615%, 46.202087%)" offset="0.390625"/><stop stop-opacity="1" stop-color="rgb(95.626831%, 82.565308%, 45.042419%)" offset="0.394531"/><stop stop-opacity="1" stop-color="rgb(95.431519%, 82.015991%, 43.884277%)" offset="0.398437"/><stop stop-opacity="1" stop-color="rgb(95.236206%, 81.465149%, 42.726135%)" offset="0.402344"/><stop stop-opacity="1" stop-color="rgb(95.040894%, 80.914307%, 41.567993%)" offset="0.40625"/><stop stop-opacity="1" stop-color="rgb(94.845581%, 80.363464%, 40.408325%)" offset="0.410156"/><stop stop-opacity="1" stop-color="rgb(94.650269%, 79.814148%, 39.250183%)" offset="0.414062"/><stop stop-opacity="1" stop-color="rgb(94.454956%, 79.263306%, 38.092041%)" offset="0.417969"/><stop stop-opacity="1" stop-color="rgb(94.259644%, 78.712463%, 36.933899%)" offset="0.421875"/><stop stop-opacity="1" stop-color="rgb(94.064331%, 78.161621%, 35.774231%)" offset="0.425781"/><stop stop-opacity="1" stop-color="rgb(93.870544%, 77.610779%, 34.616089%)" offset="0.429687"/><stop stop-opacity="1" stop-color="rgb(93.675232%, 77.059937%, 33.456421%)" offset="0.433594"/><stop stop-opacity="1" stop-color="rgb(93.479919%, 76.51062%, 32.298279%)" offset="0.4375"/><stop stop-opacity="1" stop-color="rgb(93.284607%, 75.959778%, 31.140137%)" offset="0.441406"/><stop stop-opacity="1" stop-color="rgb(93.089294%, 75.408936%, 29.981995%)" offset="0.445312"/><stop stop-opacity="1" stop-color="rgb(92.893982%, 74.858093%, 28.822327%)" offset="0.449219"/><stop stop-opacity="1" stop-color="rgb(92.698669%, 74.308777%, 27.664185%)" offset="0.453125"/><stop stop-opacity="1" stop-color="rgb(92.503357%, 73.757935%, 26.504517%)" offset="0.457031"/><stop stop-opacity="1" stop-color="rgb(92.308044%, 73.207092%, 25.346375%)" offset="0.460937"/><stop stop-opacity="1" stop-color="rgb(92.121887%, 72.875977%, 24.926758%)" offset="0.464844"/><stop stop-opacity="1" stop-color="rgb(91.93573%, 72.544861%, 24.508667%)" offset="0.46875"/><stop stop-opacity="1" stop-color="rgb(91.752625%, 72.299194%, 24.375916%)" offset="0.472656"/><stop stop-opacity="1" stop-color="rgb(91.569519%, 72.053528%, 24.243164%)" offset="0.476562"/><stop stop-opacity="1" stop-color="rgb(91.386414%, 71.806335%, 24.110413%)" offset="0.480469"/><stop stop-opacity="1" stop-color="rgb(91.204834%, 71.560669%, 23.979187%)" offset="0.484375"/><stop stop-opacity="1" stop-color="rgb(91.021729%, 71.315002%, 23.846436%)" offset="0.488281"/><stop stop-opacity="1" stop-color="rgb(90.838623%, 71.069336%, 23.713684%)" offset="0.492187"/><stop stop-opacity="1" stop-color="rgb(90.655518%, 70.823669%, 23.580933%)" offset="0.496094"/><stop stop-opacity="1" stop-color="rgb(90.472412%, 70.578003%, 23.449707%)" offset="0.5"/><stop stop-opacity="1" stop-color="rgb(90.289307%, 70.330811%, 23.316956%)" offset="0.503906"/><stop stop-opacity="1" stop-color="rgb(90.107727%, 70.085144%, 23.184204%)" offset="0.507812"/><stop stop-opacity="1" stop-color="rgb(89.924622%, 69.839478%, 23.051453%)" offset="0.511719"/><stop stop-opacity="1" stop-color="rgb(89.741516%, 69.593811%, 22.918701%)" offset="0.515625"/><stop stop-opacity="1" stop-color="rgb(89.558411%, 69.348145%, 22.78595%)" offset="0.519531"/><stop stop-opacity="1" stop-color="rgb(89.375305%, 69.102478%, 22.654724%)" offset="0.523438"/><stop stop-opacity="1" stop-color="rgb(89.1922%, 68.855286%, 22.521973%)" offset="0.527344"/><stop stop-opacity="1" stop-color="rgb(89.009094%, 68.609619%, 22.389221%)" offset="0.53125"/><stop stop-opacity="1" stop-color="rgb(88.825989%, 68.363953%, 22.25647%)" offset="0.535156"/><stop stop-opacity="1" stop-color="rgb(88.644409%, 68.118286%, 22.125244%)" offset="0.539062"/><stop stop-opacity="1" stop-color="rgb(88.461304%, 67.871094%, 21.992493%)" offset="0.542969"/><stop stop-opacity="1" stop-color="rgb(88.278198%, 67.625427%, 21.859741%)" offset="0.546875"/><stop stop-opacity="1" stop-color="rgb(88.095093%, 67.379761%, 21.72699%)" offset="0.550781"/><stop stop-opacity="1" stop-color="rgb(87.911987%, 67.134094%, 21.595764%)" offset="0.554688"/><stop stop-opacity="1" stop-color="rgb(87.728882%, 66.888428%, 21.463013%)" offset="0.558594"/><stop stop-opacity="1" stop-color="rgb(87.547302%, 66.642761%, 21.330261%)" offset="0.5625"/><stop stop-opacity="1" stop-color="rgb(87.364197%, 66.395569%, 21.19751%)" offset="0.566406"/><stop stop-opacity="1" stop-color="rgb(87.181091%, 66.149902%, 21.064758%)" offset="0.570312"/><stop stop-opacity="1" stop-color="rgb(86.997986%, 65.904236%, 20.932007%)" offset="0.574219"/><stop stop-opacity="1" stop-color="rgb(86.81488%, 65.658569%, 20.800781%)" offset="0.578125"/><stop stop-opacity="1" stop-color="rgb(86.631775%, 65.412903%, 20.66803%)" offset="0.582031"/><stop stop-opacity="1" stop-color="rgb(86.450195%, 65.167236%, 20.535278%)" offset="0.585938"/><stop stop-opacity="1" stop-color="rgb(86.26709%, 64.920044%, 20.402527%)" offset="0.589844"/><stop stop-opacity="1" stop-color="rgb(86.083984%, 64.674377%, 20.271301%)" offset="0.59375"/><stop stop-opacity="1" stop-color="rgb(85.900879%, 64.428711%, 20.13855%)" offset="0.597656"/><stop stop-opacity="1" stop-color="rgb(85.717773%, 64.183044%, 20.005798%)" offset="0.601562"/><stop stop-opacity="1" stop-color="rgb(85.534668%, 63.937378%, 19.873047%)" offset="0.605469"/><stop stop-opacity="1" stop-color="rgb(85.351562%, 63.691711%, 19.740295%)" offset="0.609375"/><stop stop-opacity="1" stop-color="rgb(85.168457%, 63.444519%, 19.607544%)" offset="0.613281"/><stop stop-opacity="1" stop-color="rgb(84.986877%, 63.198853%, 19.476318%)" offset="0.617188"/><stop stop-opacity="1" stop-color="rgb(84.803772%, 62.953186%, 19.343567%)" offset="0.621094"/><stop stop-opacity="1" stop-color="rgb(84.620667%, 62.70752%, 19.210815%)" offset="0.625"/><stop stop-opacity="1" stop-color="rgb(84.437561%, 62.461853%, 19.078064%)" offset="0.628906"/><stop stop-opacity="1" stop-color="rgb(84.254456%, 62.216187%, 18.946838%)" offset="0.632812"/><stop stop-opacity="1" stop-color="rgb(84.07135%, 61.968994%, 18.814087%)" offset="0.636719"/><stop stop-opacity="1" stop-color="rgb(83.889771%, 61.723328%, 18.681335%)" offset="0.640625"/><stop stop-opacity="1" stop-color="rgb(83.706665%, 61.477661%, 18.548584%)" offset="0.644531"/><stop stop-opacity="1" stop-color="rgb(83.52356%, 61.231995%, 18.417358%)" offset="0.648438"/><stop stop-opacity="1" stop-color="rgb(83.747864%, 61.669922%, 19.088745%)" offset="0.652344"/><stop stop-opacity="1" stop-color="rgb(83.973694%, 62.109375%, 19.760132%)" offset="0.65625"/><stop stop-opacity="1" stop-color="rgb(84.22699%, 62.59613%, 20.487976%)" offset="0.660156"/><stop stop-opacity="1" stop-color="rgb(84.481812%, 63.082886%, 21.217346%)" offset="0.664062"/><stop stop-opacity="1" stop-color="rgb(84.735107%, 63.569641%, 21.94519%)" offset="0.667969"/><stop stop-opacity="1" stop-color="rgb(84.989929%, 64.056396%, 22.674561%)" offset="0.671875"/><stop stop-opacity="1" stop-color="rgb(85.243225%, 64.543152%, 23.402405%)" offset="0.675781"/><stop stop-opacity="1" stop-color="rgb(85.498047%, 65.029907%, 24.131775%)" offset="0.679688"/><stop stop-opacity="1" stop-color="rgb(85.751343%, 65.516663%, 24.861145%)" offset="0.683594"/><stop stop-opacity="1" stop-color="rgb(86.006165%, 66.004944%, 25.590515%)" offset="0.6875"/><stop stop-opacity="1" stop-color="rgb(86.25946%, 66.491699%, 26.318359%)" offset="0.691406"/><stop stop-opacity="1" stop-color="rgb(86.514282%, 66.978455%, 27.047729%)" offset="0.695312"/><stop stop-opacity="1" stop-color="rgb(86.767578%, 67.46521%, 27.775574%)" offset="0.699219"/><stop stop-opacity="1" stop-color="rgb(87.020874%, 67.951965%, 28.504944%)" offset="0.703125"/><stop stop-opacity="1" stop-color="rgb(87.27417%, 68.438721%, 29.232788%)" offset="0.707031"/><stop stop-opacity="1" stop-color="rgb(87.528992%, 68.927002%, 29.962158%)" offset="0.710938"/><stop stop-opacity="1" stop-color="rgb(87.782288%, 69.413757%, 30.690002%)" offset="0.714844"/><stop stop-opacity="1" stop-color="rgb(88.037109%, 69.900513%, 31.419373%)" offset="0.71875"/><stop stop-opacity="1" stop-color="rgb(88.290405%, 70.387268%, 32.147217%)" offset="0.722656"/><stop stop-opacity="1" stop-color="rgb(88.545227%, 70.874023%, 32.876587%)" offset="0.726562"/><stop stop-opacity="1" stop-color="rgb(88.798523%, 71.360779%, 33.604431%)" offset="0.730469"/><stop stop-opacity="1" stop-color="rgb(89.053345%, 71.847534%, 34.333801%)" offset="0.734375"/><stop stop-opacity="1" stop-color="rgb(89.306641%, 72.33429%, 35.061646%)" offset="0.738281"/><stop stop-opacity="1" stop-color="rgb(89.561462%, 72.822571%, 35.791016%)" offset="0.742188"/><stop stop-opacity="1" stop-color="rgb(89.814758%, 73.309326%, 36.520386%)" offset="0.746094"/><stop stop-opacity="1" stop-color="rgb(90.06958%, 73.796082%, 37.249756%)" offset="0.75"/><stop stop-opacity="1" stop-color="rgb(90.322876%, 74.282837%, 37.9776%)" offset="0.753906"/><stop stop-opacity="1" stop-color="rgb(90.577698%, 74.769592%, 38.70697%)" offset="0.757812"/><stop stop-opacity="1" stop-color="rgb(90.830994%, 75.256348%, 39.434814%)" offset="0.761719"/><stop stop-opacity="1" stop-color="rgb(91.085815%, 75.744629%, 40.164185%)" offset="0.765625"/><stop stop-opacity="1" stop-color="rgb(91.339111%, 76.231384%, 40.892029%)" offset="0.769531"/><stop stop-opacity="1" stop-color="rgb(91.593933%, 76.71814%, 41.621399%)" offset="0.773438"/><stop stop-opacity="1" stop-color="rgb(91.847229%, 77.204895%, 42.349243%)" offset="0.777344"/><stop stop-opacity="1" stop-color="rgb(92.102051%, 77.69165%, 43.078613%)" offset="0.78125"/><stop stop-opacity="1" stop-color="rgb(92.355347%, 78.178406%, 43.806458%)" offset="0.785156"/><stop stop-opacity="1" stop-color="rgb(92.610168%, 78.665161%, 44.535828%)" offset="0.789062"/><stop stop-opacity="1" stop-color="rgb(92.863464%, 79.151917%, 45.263672%)" offset="0.792969"/><stop stop-opacity="1" stop-color="rgb(93.11676%, 79.640198%, 45.993042%)" offset="0.796875"/><stop stop-opacity="1" stop-color="rgb(93.370056%, 80.126953%, 46.720886%)" offset="0.800781"/><stop stop-opacity="1" stop-color="rgb(93.624878%, 80.613708%, 47.450256%)" offset="0.804688"/><stop stop-opacity="1" stop-color="rgb(93.878174%, 81.100464%, 48.179626%)" offset="0.808594"/><stop stop-opacity="1" stop-color="rgb(94.132996%, 81.587219%, 48.908997%)" offset="0.8125"/><stop stop-opacity="1" stop-color="rgb(94.386292%, 82.073975%, 49.636841%)" offset="0.816406"/><stop stop-opacity="1" stop-color="rgb(94.641113%, 82.56073%, 50.366211%)" offset="0.820312"/><stop stop-opacity="1" stop-color="rgb(94.894409%, 83.047485%, 51.094055%)" offset="0.824219"/><stop stop-opacity="1" stop-color="rgb(95.149231%, 83.535767%, 51.823425%)" offset="0.828125"/><stop stop-opacity="1" stop-color="rgb(95.402527%, 84.022522%, 52.55127%)" offset="0.832031"/><stop stop-opacity="1" stop-color="rgb(95.657349%, 84.509277%, 53.28064%)" offset="0.835938"/><stop stop-opacity="1" stop-color="rgb(95.910645%, 84.996033%, 54.008484%)" offset="0.839844"/><stop stop-opacity="1" stop-color="rgb(96.165466%, 85.482788%, 54.737854%)" offset="0.84375"/><stop stop-opacity="1" stop-color="rgb(96.418762%, 85.969543%, 55.465698%)" offset="0.847656"/><stop stop-opacity="1" stop-color="rgb(96.673584%, 86.457825%, 56.195068%)" offset="0.851562"/><stop stop-opacity="1" stop-color="rgb(96.92688%, 86.94458%, 56.922913%)" offset="0.855469"/><stop stop-opacity="1" stop-color="rgb(97.181702%, 87.431335%, 57.652283%)" offset="0.859375"/><stop stop-opacity="1" stop-color="rgb(97.434998%, 87.918091%, 58.380127%)" offset="0.863281"/><stop stop-opacity="1" stop-color="rgb(97.689819%, 88.404846%, 59.109497%)" offset="0.867188"/><stop stop-opacity="1" stop-color="rgb(97.843933%, 88.702393%, 59.553528%)" offset="0.871094"/><stop stop-opacity="1" stop-color="rgb(97.999573%, 88.999939%, 59.999084%)" offset="0.875"/><stop stop-opacity="1" stop-color="rgb(97.999573%, 88.999939%, 59.999084%)" offset="1"/></linearGradient></defs><g clip-path="url(#78c24bc4c1)"><g clip-path="url(#a420714269)"><path fill="url(#928fb64984)" d="M 26.671875 112.5 L 26.671875 262.496094 L 124.042969 262.496094 L 124.042969 112.5 Z M 26.671875 112.5 " fill-rule="nonzero"/></g></g><path fill="#ffffff" d="M 75.429688 256.503906 C 74.613281 256.5 73.808594 256.386719 73.023438 256.164062 C 69.589844 255.210938 67.410156 253.4375 65.109375 251.5625 C 62.230469 249.21875 58.964844 246.558594 53.777344 246.558594 C 52.804688 246.554688 51.832031 246.601562 50.863281 246.699219 L 50.785156 246.597656 C 50.589844 246.347656 50.367188 246.058594 50.113281 245.734375 C 48.546875 243.773438 47.265625 242.988281 42.617188 240.324219 C 38.816406 238.152344 36.769531 235.667969 35.765625 232.019531 C 34.722656 228.21875 34.804688 223.335938 34.910156 217.152344 C 34.933594 215.878906 34.953125 214.5625 34.96875 213.195312 L 34.96875 212.304688 L 33.691406 209.609375 L 33.386719 208.960938 C 34.949219 205.878906 35.726562 201.894531 35.539062 198.039062 C 35.335938 193.96875 34.097656 190.390625 31.9375 187.578125 C 34.070312 184.804688 35.308594 181.277344 35.539062 177.269531 C 35.765625 173.371094 34.984375 169.328125 33.394531 166.171875 C 33.550781 165.824219 33.769531 165.378906 33.980469 164.9375 L 34.601562 163.644531 L 34.980469 162.839844 L 34.910156 155.46875 C 34.800781 144.558594 35.082031 139.125 42.621094 134.816406 C 47.269531 132.160156 48.554688 131.386719 50.117188 129.425781 L 50.78125 128.570312 L 50.863281 128.464844 C 51.832031 128.5625 52.804688 128.609375 53.777344 128.605469 C 58.972656 128.605469 62.203125 125.960938 65.058594 123.644531 C 67.316406 121.800781 69.453125 120.058594 72.835938 119.050781 C 73.667969 118.792969 74.515625 118.65625 75.386719 118.648438 C 79.234375 118.648438 82.789062 121.410156 85.925781 123.847656 C 87.65625 125.1875 89.277344 126.453125 90.960938 127.300781 C 93.339844 128.488281 94.167969 128.59375 96.929688 128.59375 C 97.902344 128.597656 98.875 128.550781 99.84375 128.453125 L 99.921875 128.554688 C 100.117188 128.804688 100.339844 129.085938 100.59375 129.417969 C 102.15625 131.386719 103.441406 132.164062 108.089844 134.8125 C 111.890625 136.980469 113.9375 139.464844 114.941406 143.109375 C 115.984375 146.910156 115.902344 151.800781 115.804688 157.996094 C 115.785156 159.265625 115.761719 160.585938 115.746094 161.945312 L 115.746094 162.835938 L 116.128906 163.640625 C 116.347656 164.109375 116.546875 164.519531 116.726562 164.890625 C 116.941406 165.351562 117.175781 165.828125 117.34375 166.183594 C 115.757812 169.328125 114.972656 173.351562 115.195312 177.242188 C 115.421875 181.257812 116.65625 184.792969 118.789062 187.566406 C 116.660156 190.339844 115.421875 193.867188 115.1875 197.875 C 114.972656 201.78125 115.746094 205.828125 117.339844 208.984375 C 117.171875 209.351562 116.9375 209.832031 116.707031 210.304688 C 116.539062 210.65625 116.347656 211.046875 116.136719 211.484375 L 115.746094 212.296875 L 115.746094 213.199219 C 115.761719 214.597656 115.785156 215.933594 115.808594 217.230469 C 116.039062 230.390625 115.824219 235.914062 108.101562 240.328125 C 103.449219 242.984375 102.167969 243.757812 100.601562 245.730469 C 100.347656 246.046875 100.128906 246.332031 99.9375 246.578125 L 99.851562 246.683594 C 98.882812 246.589844 97.910156 246.542969 96.9375 246.546875 C 94.175781 246.546875 93.359375 246.660156 90.96875 247.839844 C 89.257812 248.691406 87.621094 249.96875 85.886719 251.320312 C 82.625 253.871094 79.257812 256.503906 75.429688 256.503906 Z M 75.429688 256.503906 " fill-opacity="1" fill-rule="nonzero"/><g fill="#faff00" fill-opacity="1"><g transform="translate(39.983729, 196.400788)"><g><path d="M 22.871094 -34.546875 L 7.542969 -34.546875 C 3.210938 -34.546875 -0.144531 -30.996094 -0.144531 -26.714844 C -0.144531 -22.578125 3.210938 -19.027344 7.542969 -19.027344 L 7.542969 -7.347656 C 7.542969 -3.015625 11.046875 0.535156 15.230469 0.535156 C 19.511719 0.535156 23.066406 -3.015625 23.066406 -7.347656 L 23.015625 -19.027344 C 27.347656 -19.027344 30.703125 -22.578125 30.703125 -26.714844 C 30.703125 -30.996094 27.199219 -34.546875 22.871094 -34.546875 Z M 22.871094 -34.546875 "/></g></g></g><g fill="#faff00" fill-opacity="1"><g transform="translate(71.415612, 196.400788)"><g><path d="M 21.265625 -10.609375 C 21.507812 -10.898438 21.898438 -10.609375 21.75 -10.21875 L 18.78125 -5.691406 C 19.609375 -2.433594 22.285156 0 26.277344 0 C 30.167969 0 33.964844 -3.40625 33.964844 -7.640625 L 33.964844 -26.8125 C 33.964844 -29.730469 32.457031 -32.261719 30.070312 -33.476562 C 28.902344 -34.207031 27.542969 -34.546875 26.226562 -34.546875 C 24.039062 -34.546875 21.898438 -33.625 20.386719 -31.871094 L 1.75 -12.992188 C 0.292969 -11.484375 -0.488281 -9.539062 -0.488281 -7.589844 C -0.488281 -5.644531 0.292969 -3.746094 1.75 -2.238281 C 3.261719 -0.730469 5.253906 0 7.25 0 C 9.195312 0 11.191406 -0.730469 12.699219 -2.238281 Z M 21.265625 -10.609375 "/></g></g></g><g fill="#faff00" fill-opacity="1"><g transform="translate(106.837293, 196.400788)"><g><path d="M 7.6875 0 C 11.921875 0 15.230469 -3.164062 15.472656 -7.25 L 19.660156 -2.480469 C 21.070312 -0.828125 22.871094 0 24.816406 0 C 26.8125 0 28.902344 -0.828125 30.316406 -2.238281 C 33.089844 -5.011719 33.476562 -8.808594 31.289062 -11.921875 C 30.023438 -10.460938 28.515625 -9.441406 26.910156 -8.710938 C 26.617188 -8.5625 26.375 -9.050781 26.617188 -9.195312 C 30.316406 -11.777344 32.554688 -15.960938 32.554688 -20.730469 C 32.554688 -28.367188 26.375 -34.546875 18.734375 -34.546875 L 7.835938 -34.546875 C 3.503906 -34.546875 -0.046875 -31.140625 -0.046875 -26.859375 L -0.046875 -7.882812 C -0.046875 -3.550781 3.503906 0 7.6875 0 Z M 16.351562 -22.285156 C 17.371094 -22.285156 18.101562 -21.410156 18.101562 -20.386719 C 18.101562 -19.367188 17.371094 -18.589844 16.351562 -18.589844 C 15.960938 -18.589844 15.71875 -18.589844 15.472656 -18.734375 L 15.472656 -22.042969 C 15.71875 -22.1875 15.960938 -22.285156 16.351562 -22.285156 Z M 16.351562 -22.285156 "/></g></g></g><g fill="#faff00" fill-opacity="1"><g transform="translate(140.847953, 196.400788)"><g><path d="M 23.164062 -34.546875 C 18.878906 -34.546875 15.472656 -30.996094 15.472656 -26.761719 L 15.472656 -16.300781 C 15.472656 -16.007812 15.132812 -15.960938 15.085938 -16.300781 C 14.597656 -19.804688 11.921875 -22.53125 7.6875 -22.382812 C 3.40625 -22.140625 0 -18.734375 0 -14.453125 C 0 -4.332031 7.054688 0 15.472656 0 C 23.890625 0 30.996094 -5.0625 30.996094 -14.550781 L 30.996094 -26.761719 C 30.996094 -30.996094 27.542969 -34.546875 23.164062 -34.546875 Z M 23.164062 -34.546875 "/></g></g></g><g fill="#faff00" fill-opacity="1"><g transform="translate(173.30161, 196.400788)"><g><path d="M 0 -26.714844 L 0 -7.6875 C 0 -3.503906 3.40625 0 7.738281 0 L 20.535156 0 C 25.9375 0 28.222656 -4.671875 28.222656 -7.6875 C 28.222656 -9.730469 27.980469 -10.609375 27.492188 -11.433594 C 25.691406 -9.292969 23.164062 -8.808594 20.632812 -9.050781 C 20.292969 -9.050781 20.292969 -9.632812 20.632812 -9.632812 C 25.109375 -10.171875 28.125 -12.894531 28.125 -17.421875 C 28.125 -18.589844 27.882812 -19.757812 27.394531 -20.828125 C 25.449219 -18.78125 22.820312 -18.199219 20.144531 -18.539062 C 19.804688 -18.683594 19.804688 -19.171875 20.144531 -19.171875 C 25.058594 -19.316406 28.125 -22.675781 28.125 -26.761719 C 28.125 -30.753906 25.058594 -34.546875 20.535156 -34.546875 L 7.835938 -34.546875 C 3.261719 -34.546875 0 -31.046875 0 -26.714844 Z M 0 -26.714844 "/></g></g></g><g fill="#faff00" fill-opacity="1"><g transform="translate(202.787241, 196.400788)"><g><path d="M 22.871094 -34.546875 L 7.542969 -34.546875 C 3.210938 -34.546875 -0.144531 -30.996094 -0.144531 -26.714844 C -0.144531 -22.578125 3.210938 -19.027344 7.542969 -19.027344 L 7.542969 -7.347656 C 7.542969 -3.015625 11.046875 0.535156 15.230469 0.535156 C 19.511719 0.535156 23.066406 -3.015625 23.066406 -7.347656 L 23.015625 -19.027344 C 27.347656 -19.027344 30.703125 -22.578125 30.703125 -26.714844 C 30.703125 -30.996094 27.199219 -34.546875 22.871094 -34.546875 Z M 22.871094 -34.546875 "/></g></g></g><g fill="#faff00" fill-opacity="1"><g transform="translate(234.219112, 196.400788)"><g><path d="M 7.6875 0 C 12.117188 0 15.523438 -3.550781 15.523438 -7.785156 L 15.523438 -26.910156 C 15.523438 -31.140625 12.117188 -34.546875 7.6875 -34.546875 C 3.40625 -34.546875 0 -31.140625 0 -26.910156 L 0 -7.785156 C 0 -3.550781 3.40625 0 7.6875 0 Z M 7.6875 0 "/></g></g></g><g fill="#faff00" fill-opacity="1"><g transform="translate(251.297427, 196.400788)"><g><path d="M 22.871094 -34.546875 L 7.542969 -34.546875 C 3.210938 -34.546875 -0.144531 -30.996094 -0.144531 -26.714844 C -0.144531 -22.578125 3.210938 -19.027344 7.542969 -19.027344 L 7.542969 -7.347656 C 7.542969 -3.015625 11.046875 0.535156 15.230469 0.535156 C 19.511719 0.535156 23.066406 -3.015625 23.066406 -7.347656 L 23.015625 -19.027344 C 27.347656 -19.027344 30.703125 -22.578125 30.703125 -26.714844 C 30.703125 -30.996094 27.199219 -34.546875 22.871094 -34.546875 Z M 22.871094 -34.546875 "/></g></g></g><g fill="#faff00" fill-opacity="1"><g transform="translate(282.72931, 196.400788)"><g><path d="M 21.265625 -10.609375 C 21.507812 -10.898438 21.898438 -10.609375 21.75 -10.21875 L 18.78125 -5.691406 C 19.609375 -2.433594 22.285156 0 26.277344 0 C 30.167969 0 33.964844 -3.40625 33.964844 -7.640625 L 33.964844 -26.8125 C 33.964844 -29.730469 32.457031 -32.261719 30.070312 -33.476562 C 28.902344 -34.207031 27.542969 -34.546875 26.226562 -34.546875 C 24.039062 -34.546875 21.898438 -33.625 20.386719 -31.871094 L 1.75 -12.992188 C 0.292969 -11.484375 -0.488281 -9.539062 -0.488281 -7.589844 C -0.488281 -5.644531 0.292969 -3.746094 1.75 -2.238281 C 3.261719 -0.730469 5.253906 0 7.25 0 C 9.195312 0 11.191406 -0.730469 12.699219 -2.238281 Z M 21.265625 -10.609375 "/></g></g></g><g fill="#faff00" fill-opacity="1"><g transform="translate(318.150992, 196.400788)"><g><path d="M 30.898438 -26.910156 C 30.898438 -31.191406 27.347656 -34.546875 23.015625 -34.546875 L 12.457031 -34.546875 C -1.605469 -34.546875 -3.796875 -18.878906 5.742188 -13.867188 C 7.007812 -13.234375 8.417969 -12.699219 9.78125 -12.601562 C 10.171875 -12.457031 10.074219 -11.96875 9.683594 -11.96875 C 7.394531 -11.96875 4.867188 -12.601562 2.96875 -13.867188 C 0.828125 -12.3125 -0.0976562 -10.363281 -0.0976562 -7.738281 C -0.0976562 -4.28125 3.503906 0 7.640625 0 L 18.296875 0 C 33.722656 0 34.839844 -19.027344 21.847656 -21.996094 C 21.460938 -22.089844 21.605469 -22.625 21.996094 -22.625 C 23.941406 -22.480469 25.839844 -21.996094 27.445312 -21.070312 C 29.730469 -22.238281 30.898438 -24.378906 30.898438 -26.910156 Z M 30.898438 -26.910156 "/></g></g></g><g fill="#e92a6d" fill-opacity="1"><g transform="translate(37.832924, 194.249987)"><g><path d="M 22.871094 -34.546875 L 7.542969 -34.546875 C 3.210938 -34.546875 -0.144531 -30.996094 -0.144531 -26.714844 C -0.144531 -22.578125 3.210938 -19.027344 7.542969 -19.027344 L 7.542969 -7.347656 C 7.542969 -3.015625 11.046875 0.535156 15.230469 0.535156 C 19.511719 0.535156 23.066406 -3.015625 23.066406 -7.347656 L 23.015625 -19.027344 C 27.347656 -19.027344 30.703125 -22.578125 30.703125 -26.714844 C 30.703125 -30.996094 27.199219 -34.546875 22.871094 -34.546875 Z M 22.871094 -34.546875 "/></g></g></g><g fill="#e92a6d" fill-opacity="1"><g transform="translate(69.264807, 194.249987)"><g><path d="M 21.265625 -10.609375 C 21.507812 -10.898438 21.898438 -10.609375 21.75 -10.21875 L 18.78125 -5.691406 C 19.609375 -2.433594 22.285156 0 26.277344 0 C 30.167969 0 33.964844 -3.40625 33.964844 -7.640625 L 33.964844 -26.8125 C 33.964844 -29.730469 32.457031 -32.261719 30.070312 -33.476562 C 28.902344 -34.207031 27.542969 -34.546875 26.226562 -34.546875 C 24.039062 -34.546875 21.898438 -33.625 20.386719 -31.871094 L 1.75 -12.992188 C 0.292969 -11.484375 -0.488281 -9.539062 -0.488281 -7.589844 C -0.488281 -5.644531 0.292969 -3.746094 1.75 -2.238281 C 3.261719 -0.730469 5.253906 0 7.25 0 C 9.195312 0 11.191406 -0.730469 12.699219 -2.238281 Z M 21.265625 -10.609375 "/></g></g></g><g fill="#e92a6d" fill-opacity="1"><g transform="translate(104.686489, 194.249987)"><g><path d="M 7.6875 0 C 11.921875 0 15.230469 -3.164062 15.472656 -7.25 L 19.660156 -2.480469 C 21.070312 -0.828125 22.871094 0 24.816406 0 C 26.8125 0 28.902344 -0.828125 30.316406 -2.238281 C 33.089844 -5.011719 33.476562 -8.808594 31.289062 -11.921875 C 30.023438 -10.460938 28.515625 -9.441406 26.910156 -8.710938 C 26.617188 -8.5625 26.375 -9.050781 26.617188 -9.195312 C 30.316406 -11.777344 32.554688 -15.960938 32.554688 -20.730469 C 32.554688 -28.367188 26.375 -34.546875 18.734375 -34.546875 L 7.835938 -34.546875 C 3.503906 -34.546875 -0.046875 -31.140625 -0.046875 -26.859375 L -0.046875 -7.882812 C -0.046875 -3.550781 3.503906 0 7.6875 0 Z M 16.351562 -22.285156 C 17.371094 -22.285156 18.101562 -21.410156 18.101562 -20.386719 C 18.101562 -19.367188 17.371094 -18.589844 16.351562 -18.589844 C 15.960938 -18.589844 15.71875 -18.589844 15.472656 -18.734375 L 15.472656 -22.042969 C 15.71875 -22.1875 15.960938 -22.285156 16.351562 -22.285156 Z M 16.351562 -22.285156 "/></g></g></g><g fill="#e92a6d" fill-opacity="1"><g transform="translate(138.697148, 194.249987)"><g><path d="M 23.164062 -34.546875 C 18.878906 -34.546875 15.472656 -30.996094 15.472656 -26.761719 L 15.472656 -16.300781 C 15.472656 -16.007812 15.132812 -15.960938 15.085938 -16.300781 C 14.597656 -19.804688 11.921875 -22.53125 7.6875 -22.382812 C 3.40625 -22.140625 0 -18.734375 0 -14.453125 C 0 -4.332031 7.054688 0 15.472656 0 C 23.890625 0 30.996094 -5.0625 30.996094 -14.550781 L 30.996094 -26.761719 C 30.996094 -30.996094 27.542969 -34.546875 23.164062 -34.546875 Z M 23.164062 -34.546875 "/></g></g></g><g fill="#e92a6d" fill-opacity="1"><g transform="translate(171.150805, 194.249987)"><g><path d="M 0 -26.714844 L 0 -7.6875 C 0 -3.503906 3.40625 0 7.738281 0 L 20.535156 0 C 25.9375 0 28.222656 -4.671875 28.222656 -7.6875 C 28.222656 -9.730469 27.980469 -10.609375 27.492188 -11.433594 C 25.691406 -9.292969 23.164062 -8.808594 20.632812 -9.050781 C 20.292969 -9.050781 20.292969 -9.632812 20.632812 -9.632812 C 25.109375 -10.171875 28.125 -12.894531 28.125 -17.421875 C 28.125 -18.589844 27.882812 -19.757812 27.394531 -20.828125 C 25.449219 -18.78125 22.820312 -18.199219 20.144531 -18.539062 C 19.804688 -18.683594 19.804688 -19.171875 20.144531 -19.171875 C 25.058594 -19.316406 28.125 -22.675781 28.125 -26.761719 C 28.125 -30.753906 25.058594 -34.546875 20.535156 -34.546875 L 7.835938 -34.546875 C 3.261719 -34.546875 0 -31.046875 0 -26.714844 Z M 0 -26.714844 "/></g></g></g><g fill="#e92a6d" fill-opacity="1"><g transform="translate(200.636437, 194.249987)"><g><path d="M 22.871094 -34.546875 L 7.542969 -34.546875 C 3.210938 -34.546875 -0.144531 -30.996094 -0.144531 -26.714844 C -0.144531 -22.578125 3.210938 -19.027344 7.542969 -19.027344 L 7.542969 -7.347656 C 7.542969 -3.015625 11.046875 0.535156 15.230469 0.535156 C 19.511719 0.535156 23.066406 -3.015625 23.066406 -7.347656 L 23.015625 -19.027344 C 27.347656 -19.027344 30.703125 -22.578125 30.703125 -26.714844 C 30.703125 -30.996094 27.199219 -34.546875 22.871094 -34.546875 Z M 22.871094 -34.546875 "/></g></g></g><g fill="#e92a6d" fill-opacity="1"><g transform="translate(232.068308, 194.249987)"><g><path d="M 7.6875 0 C 12.117188 0 15.523438 -3.550781 15.523438 -7.785156 L 15.523438 -26.910156 C 15.523438 -31.140625 12.117188 -34.546875 7.6875 -34.546875 C 3.40625 -34.546875 0 -31.140625 0 -26.910156 L 0 -7.785156 C 0 -3.550781 3.40625 0 7.6875 0 Z M 7.6875 0 "/></g></g></g><g fill="#e92a6d" fill-opacity="1"><g transform="translate(249.146622, 194.249987)"><g><path d="M 22.871094 -34.546875 L 7.542969 -34.546875 C 3.210938 -34.546875 -0.144531 -30.996094 -0.144531 -26.714844 C -0.144531 -22.578125 3.210938 -19.027344 7.542969 -19.027344 L 7.542969 -7.347656 C 7.542969 -3.015625 11.046875 0.535156 15.230469 0.535156 C 19.511719 0.535156 23.066406 -3.015625 23.066406 -7.347656 L 23.015625 -19.027344 C 27.347656 -19.027344 30.703125 -22.578125 30.703125 -26.714844 C 30.703125 -30.996094 27.199219 -34.546875 22.871094 -34.546875 Z M 22.871094 -34.546875 "/></g></g></g><g fill="#e92a6d" fill-opacity="1"><g transform="translate(280.578505, 194.249987)"><g><path d="M 21.265625 -10.609375 C 21.507812 -10.898438 21.898438 -10.609375 21.75 -10.21875 L 18.78125 -5.691406 C 19.609375 -2.433594 22.285156 0 26.277344 0 C 30.167969 0 33.964844 -3.40625 33.964844 -7.640625 L 33.964844 -26.8125 C 33.964844 -29.730469 32.457031 -32.261719 30.070312 -33.476562 C 28.902344 -34.207031 27.542969 -34.546875 26.226562 -34.546875 C 24.039062 -34.546875 21.898438 -33.625 20.386719 -31.871094 L 1.75 -12.992188 C 0.292969 -11.484375 -0.488281 -9.539062 -0.488281 -7.589844 C -0.488281 -5.644531 0.292969 -3.746094 1.75 -2.238281 C 3.261719 -0.730469 5.253906 0 7.25 0 C 9.195312 0 11.191406 -0.730469 12.699219 -2.238281 Z M 21.265625 -10.609375 "/></g></g></g><g fill="#e92a6d" fill-opacity="1"><g transform="translate(316.000187, 194.249987)"><g><path d="M 30.898438 -26.910156 C 30.898438 -31.191406 27.347656 -34.546875 23.015625 -34.546875 L 12.457031 -34.546875 C -1.605469 -34.546875 -3.796875 -18.878906 5.742188 -13.867188 C 7.007812 -13.234375 8.417969 -12.699219 9.78125 -12.601562 C 10.171875 -12.457031 10.074219 -11.96875 9.683594 -11.96875 C 7.394531 -11.96875 4.867188 -12.601562 2.96875 -13.867188 C 0.828125 -12.3125 -0.0976562 -10.363281 -0.0976562 -7.738281 C -0.0976562 -4.28125 3.503906 0 7.640625 0 L 18.296875 0 C 33.722656 0 34.839844 -19.027344 21.847656 -21.996094 C 21.460938 -22.089844 21.605469 -22.625 21.996094 -22.625 C 23.941406 -22.480469 25.839844 -21.996094 27.445312 -21.070312 C 29.730469 -22.238281 30.898438 -24.378906 30.898438 -26.910156 Z M 30.898438 -26.910156 "/></g></g></g><g fill="#faff00" fill-opacity="1"><g transform="translate(132.597004, 234.650785)"><g><path d="M 7.882812 0 L 17.128906 0 C 22.1875 0 24.71875 -3.894531 24.71875 -7.785156 C 24.71875 -11.679688 22.1875 -15.570312 17.128906 -15.570312 L 15.425781 -15.570312 L 15.523438 -26.8125 C 15.570312 -31.046875 12.066406 -34.546875 7.738281 -34.546875 C 3.453125 -34.546875 0 -31.046875 0 -26.8125 L 0 -7.882812 C 0 -3.40625 3.359375 0 7.882812 0 Z M 7.882812 0 "/></g></g></g><g fill="#faff00" fill-opacity="1"><g transform="translate(158.336115, 234.650785)"><g><path d="M 16.59375 0.4375 C 25.644531 0.4375 33.1875 -7.105469 33.1875 -16.15625 L 33.1875 -26.714844 C 33.1875 -30.996094 29.632812 -34.546875 25.496094 -34.546875 C 21.167969 -34.546875 17.664062 -30.996094 17.664062 -26.714844 L 17.664062 -17.175781 C 17.664062 -16.59375 17.175781 -15.960938 16.59375 -15.960938 C 15.960938 -15.960938 15.523438 -16.59375 15.523438 -17.175781 L 15.523438 -26.714844 C 15.523438 -30.996094 12.117188 -34.546875 7.835938 -34.546875 C 3.503906 -34.546875 0 -30.996094 0 -26.714844 L 0 -16.15625 C 0 -7.105469 7.492188 0.4375 16.59375 0.4375 Z M 16.59375 0.4375 "/></g></g></g><g fill="#faff00" fill-opacity="1"><g transform="translate(192.881992, 234.650785)"><g><path d="M 17.226562 -34.546875 C 7.738281 -34.546875 0 -26.957031 0 -17.324219 C 0 -8.125 7.640625 0 16.980469 0 L 24.039062 0 C 28.5625 0 32.261719 -3.84375 32.261719 -8.222656 C 32.261719 -12.796875 28.5625 -16.691406 24.039062 -16.691406 C 21.605469 -16.691406 19.707031 -15.570312 18.246094 -15.570312 C 17.226562 -15.570312 16.351562 -16.351562 16.351562 -17.324219 C 16.351562 -18.34375 17.226562 -19.21875 18.246094 -19.21875 C 19.707031 -19.21875 21.605469 -18.101562 24.039062 -18.101562 C 28.5625 -18.101562 32.261719 -21.75 32.261719 -26.324219 C 32.261719 -30.703125 28.5625 -34.546875 24.039062 -34.546875 Z M 17.226562 -34.546875 "/></g></g></g><g fill="#faff00" fill-opacity="1"><g transform="translate(226.600713, 234.650785)"><g><path d="M 7.6875 0 C 12.117188 0 15.523438 -3.550781 15.523438 -7.785156 L 15.523438 -26.910156 C 15.523438 -31.140625 12.117188 -34.546875 7.6875 -34.546875 C 3.40625 -34.546875 0 -31.140625 0 -26.910156 L 0 -7.785156 C 0 -3.550781 3.40625 0 7.6875 0 Z M 7.6875 0 "/></g></g></g><g fill="#faff00" fill-opacity="1"><g transform="translate(243.679028, 234.650785)"><g><path d="M 21.265625 -10.609375 C 21.507812 -10.898438 21.898438 -10.609375 21.75 -10.21875 L 18.78125 -5.691406 C 19.609375 -2.433594 22.285156 0 26.277344 0 C 30.167969 0 33.964844 -3.40625 33.964844 -7.640625 L 33.964844 -26.8125 C 33.964844 -29.730469 32.457031 -32.261719 30.070312 -33.476562 C 28.902344 -34.207031 27.542969 -34.546875 26.226562 -34.546875 C 24.039062 -34.546875 21.898438 -33.625 20.386719 -31.871094 L 1.75 -12.992188 C 0.292969 -11.484375 -0.488281 -9.539062 -0.488281 -7.589844 C -0.488281 -5.644531 0.292969 -3.746094 1.75 -2.238281 C 3.261719 -0.730469 5.253906 0 7.25 0 C 9.195312 0 11.191406 -0.730469 12.699219 -2.238281 Z M 21.265625 -10.609375 "/></g></g></g><g fill="#faff00" fill-opacity="1"><g transform="translate(279.10071, 234.650785)"><g><path d="M 34.546875 -7.152344 L 34.546875 -26.761719 C 34.546875 -30.996094 31.824219 -34.546875 26.714844 -34.546875 C 23.113281 -34.546875 19.949219 -31.824219 19.21875 -28.515625 L 22.089844 -24.328125 C 22.238281 -24.039062 21.800781 -23.746094 21.652344 -24.039062 L 13.722656 -31.824219 C 12.261719 -33.285156 10.121094 -34.546875 7.785156 -34.546875 C 3.503906 -34.546875 0 -30.996094 0 -26.761719 L 0 -7.300781 C 0 -2.917969 3.503906 0.488281 7.785156 0.488281 C 11.433594 0.488281 14.597656 -2.042969 15.328125 -5.402344 L 12.554688 -9.683594 C 12.410156 -10.023438 12.847656 -10.460938 12.992188 -10.171875 L 21.363281 -1.75 C 22.871094 -0.242188 24.867188 0.488281 26.859375 0.488281 C 30.949219 0.488281 34.546875 -2.191406 34.546875 -7.152344 Z M 34.546875 -7.152344 "/></g></g></g><g fill="#faff00" fill-opacity="1"><g transform="translate(315.106269, 234.650785)"><g><path d="M 21.265625 -10.609375 C 21.507812 -10.898438 21.898438 -10.609375 21.75 -10.21875 L 18.78125 -5.691406 C 19.609375 -2.433594 22.285156 0 26.277344 0 C 30.167969 0 33.964844 -3.40625 33.964844 -7.640625 L 33.964844 -26.8125 C 33.964844 -29.730469 32.457031 -32.261719 30.070312 -33.476562 C 28.902344 -34.207031 27.542969 -34.546875 26.226562 -34.546875 C 24.039062 -34.546875 21.898438 -33.625 20.386719 -31.871094 L 1.75 -12.992188 C 0.292969 -11.484375 -0.488281 -9.539062 -0.488281 -7.589844 C -0.488281 -5.644531 0.292969 -3.746094 1.75 -2.238281 C 3.261719 -0.730469 5.253906 0 7.25 0 C 9.195312 0 11.191406 -0.730469 12.699219 -2.238281 Z M 21.265625 -10.609375 "/></g></g></g><g fill="#a134f6" fill-opacity="1"><g transform="translate(130.446199, 232.499985)"><g><path d="M 7.882812 0 L 17.128906 0 C 22.1875 0 24.71875 -3.894531 24.71875 -7.785156 C 24.71875 -11.679688 22.1875 -15.570312 17.128906 -15.570312 L 15.425781 -15.570312 L 15.523438 -26.8125 C 15.570312 -31.046875 12.066406 -34.546875 7.738281 -34.546875 C 3.453125 -34.546875 0 -31.046875 0 -26.8125 L 0 -7.882812 C 0 -3.40625 3.359375 0 7.882812 0 Z M 7.882812 0 "/></g></g></g><g fill="#a134f6" fill-opacity="1"><g transform="translate(156.185311, 232.499985)"><g><path d="M 16.59375 0.4375 C 25.644531 0.4375 33.1875 -7.105469 33.1875 -16.15625 L 33.1875 -26.714844 C 33.1875 -30.996094 29.632812 -34.546875 25.496094 -34.546875 C 21.167969 -34.546875 17.664062 -30.996094 17.664062 -26.714844 L 17.664062 -17.175781 C 17.664062 -16.59375 17.175781 -15.960938 16.59375 -15.960938 C 15.960938 -15.960938 15.523438 -16.59375 15.523438 -17.175781 L 15.523438 -26.714844 C 15.523438 -30.996094 12.117188 -34.546875 7.835938 -34.546875 C 3.503906 -34.546875 0 -30.996094 0 -26.714844 L 0 -16.15625 C 0 -7.105469 7.492188 0.4375 16.59375 0.4375 Z M 16.59375 0.4375 "/></g></g></g><g fill="#a134f6" fill-opacity="1"><g transform="translate(190.731187, 232.499985)"><g><path d="M 17.226562 -34.546875 C 7.738281 -34.546875 0 -26.957031 0 -17.324219 C 0 -8.125 7.640625 0 16.980469 0 L 24.039062 0 C 28.5625 0 32.261719 -3.84375 32.261719 -8.222656 C 32.261719 -12.796875 28.5625 -16.691406 24.039062 -16.691406 C 21.605469 -16.691406 19.707031 -15.570312 18.246094 -15.570312 C 17.226562 -15.570312 16.351562 -16.351562 16.351562 -17.324219 C 16.351562 -18.34375 17.226562 -19.21875 18.246094 -19.21875 C 19.707031 -19.21875 21.605469 -18.101562 24.039062 -18.101562 C 28.5625 -18.101562 32.261719 -21.75 32.261719 -26.324219 C 32.261719 -30.703125 28.5625 -34.546875 24.039062 -34.546875 Z M 17.226562 -34.546875 "/></g></g></g><g fill="#a134f6" fill-opacity="1"><g transform="translate(224.449909, 232.499985)"><g><path d="M 7.6875 0 C 12.117188 0 15.523438 -3.550781 15.523438 -7.785156 L 15.523438 -26.910156 C 15.523438 -31.140625 12.117188 -34.546875 7.6875 -34.546875 C 3.40625 -34.546875 0 -31.140625 0 -26.910156 L 0 -7.785156 C 0 -3.550781 3.40625 0 7.6875 0 Z M 7.6875 0 "/></g></g></g><g fill="#a134f6" fill-opacity="1"><g transform="translate(241.528223, 232.499985)"><g><path d="M 21.265625 -10.609375 C 21.507812 -10.898438 21.898438 -10.609375 21.75 -10.21875 L 18.78125 -5.691406 C 19.609375 -2.433594 22.285156 0 26.277344 0 C 30.167969 0 33.964844 -3.40625 33.964844 -7.640625 L 33.964844 -26.8125 C 33.964844 -29.730469 32.457031 -32.261719 30.070312 -33.476562 C 28.902344 -34.207031 27.542969 -34.546875 26.226562 -34.546875 C 24.039062 -34.546875 21.898438 -33.625 20.386719 -31.871094 L 1.75 -12.992188 C 0.292969 -11.484375 -0.488281 -9.539062 -0.488281 -7.589844 C -0.488281 -5.644531 0.292969 -3.746094 1.75 -2.238281 C 3.261719 -0.730469 5.253906 0 7.25 0 C 9.195312 0 11.191406 -0.730469 12.699219 -2.238281 Z M 21.265625 -10.609375 "/></g></g></g><g fill="#a134f6" fill-opacity="1"><g transform="translate(276.949905, 232.499985)"><g><path d="M 34.546875 -7.152344 L 34.546875 -26.761719 C 34.546875 -30.996094 31.824219 -34.546875 26.714844 -34.546875 C 23.113281 -34.546875 19.949219 -31.824219 19.21875 -28.515625 L 22.089844 -24.328125 C 22.238281 -24.039062 21.800781 -23.746094 21.652344 -24.039062 L 13.722656 -31.824219 C 12.261719 -33.285156 10.121094 -34.546875 7.785156 -34.546875 C 3.503906 -34.546875 0 -30.996094 0 -26.761719 L 0 -7.300781 C 0 -2.917969 3.503906 0.488281 7.785156 0.488281 C 11.433594 0.488281 14.597656 -2.042969 15.328125 -5.402344 L 12.554688 -9.683594 C 12.410156 -10.023438 12.847656 -10.460938 12.992188 -10.171875 L 21.363281 -1.75 C 22.871094 -0.242188 24.867188 0.488281 26.859375 0.488281 C 30.949219 0.488281 34.546875 -2.191406 34.546875 -7.152344 Z M 34.546875 -7.152344 "/></g></g></g><g fill="#a134f6" fill-opacity="1"><g transform="translate(312.955465, 232.499985)"><g><path d="M 21.265625 -10.609375 C 21.507812 -10.898438 21.898438 -10.609375 21.75 -10.21875 L 18.78125 -5.691406 C 19.609375 -2.433594 22.285156 0 26.277344 0 C 30.167969 0 33.964844 -3.40625 33.964844 -7.640625 L 33.964844 -26.8125 C 33.964844 -29.730469 32.457031 -32.261719 30.070312 -33.476562 C 28.902344 -34.207031 27.542969 -34.546875 26.226562 -34.546875 C 24.039062 -34.546875 21.898438 -33.625 20.386719 -31.871094 L 1.75 -12.992188 C 0.292969 -11.484375 -0.488281 -9.539062 -0.488281 -7.589844 C -0.488281 -5.644531 0.292969 -3.746094 1.75 -2.238281 C 3.261719 -0.730469 5.253906 0 7.25 0 C 9.195312 0 11.191406 -0.730469 12.699219 -2.238281 Z M 21.265625 -10.609375 "/></g></g></g></svg>